<svg height="496pt" viewBox="0 0 496 496" width="496pt" xmlns="http://www.w3.org/2000/svg"><path d="m144 296.097656v-40.097656h8c4.414062 0 8-3.585938 8-8v-32c0-4.414062-3.585938-8-8-8h-96c-4.414062 0-8 3.585938-8 8v32c0 4.414062 3.585938 8 8 8h8v40.097656c-38.503906 16.0625-64 53.902344-64 95.902344 0 57.34375 46.65625 104 104 104s104-46.65625 104-104c0-42-25.496094-79.839844-64-95.902344zm-80-72.097656h80v16h-80zm64 32v16h-48v-16zm-53.328125 53.121094c3.191406-1.136719 5.328125-4.152344 5.328125-7.546875v-13.574219h48v13.574219c0 3.394531 2.136719 6.410156 5.328125 7.539062 28.039063 9.925781 48.6875 33.199219 55.871094 61.09375-7.328125-6.503906-16.574219-10.207031-26.457031-10.207031h-5.496094c-10.679688 0-20.726563 4.167969-28.277344 11.710938l-5.265625 5.257812c-4.457031 4.472656-10.640625 7.03125-16.960937 7.03125h-5.496094c-6.316406 0-12.492188-2.558594-16.972656-7.039062l-5.257813-5.242188c-7.542969-7.550781-17.589844-11.71875-28.273437-11.71875h-5.484376c-9.882812 0-19.128906 3.703125-26.449218 10.214844 7.175781-27.894532 27.824218-51.167969 55.863281-61.09375zm29.328125 170.878906c-47.457031 0-86.160156-37.792969-87.839844-84.847656l12.128906-12.121094c4.464844-4.472656 10.648438-7.03125 16.96875-7.03125h5.496094c6.316406 0 12.492188 2.558594 16.972656 7.039062l5.257813 5.242188c7.550781 7.550781 17.601563 11.71875 28.28125 11.71875h5.496094c10.679687 0 20.726562-4.167969 28.277343-11.710938l5.265626-5.257812c4.449218-4.472656 10.632812-7.03125 16.953124-7.03125h5.496094c6.316406 0 12.492188 2.558594 16.964844 7.03125l12.128906 12.121094c-1.6875 47.054687-40.390625 84.847656-87.847656 84.847656zm0 0"/><path d="m64 400c-13.230469 0-24 10.769531-24 24s10.769531 24 24 24 24-10.769531 24-24-10.769531-24-24-24zm0 32c-4.40625 0-8-3.585938-8-8s3.59375-8 8-8 8 3.585938 8 8-3.59375 8-8 8zm0 0"/><path d="m128 416c-13.230469 0-24 10.769531-24 24s10.769531 24 24 24 24-10.769531 24-24-10.769531-24-24-24zm0 32c-4.40625 0-8-3.585938-8-8s3.59375-8 8-8 8 3.585938 8 8-3.59375 8-8 8zm0 0"/><path d="m152 392h16v16h-16zm0 0"/><path d="m488 192h-40v-24c0-4.414062-3.585938-8-8-8h-232c-2.777344 0-5.34375 1.441406-6.808594 3.792969-1.457031 2.359375-1.589844 5.304687-.351562 7.78125l23.160156 46.3125v270.113281c0 4.425781 3.585938 8 8 8h208c4.414062 0 8-3.574219 8-8v-280h32v96h16v-104c0-4.414062-3.585938-8-8-8zm-267.054688-16h211.054688v80h-192v-40c0-1.238281-.289062-2.472656-.839844-3.574219zm19.054688 304v-16h32v-16h-32v-16h48v-16h-48v-16h32v-16h-32v-16h48v-16h-48v-16h32v-16h-32v-16h48v-16h-48v-16h192v208zm0 0"/><path d="m328 400c-13.230469 0-24 10.769531-24 24s10.769531 24 24 24 24-10.769531 24-24-10.769531-24-24-24zm0 32c-4.40625 0-8-3.585938-8-8s3.59375-8 8-8 8 3.585938 8 8-3.59375 8-8 8zm0 0"/><path d="m384 336c-17.648438 0-32 14.351562-32 32s14.351562 32 32 32 32-14.351562 32-32-14.351562-32-32-32zm0 48c-8.824219 0-16-7.175781-16-16s7.175781-16 16-16 16 7.175781 16 16-7.175781 16-16 16zm0 0"/><path d="m400 448h16v16h-16zm0 0"/><path d="m384 416h16v16h-16zm0 0"/><path d="m32 64c1.160156 0 2.257812-.222656 3.390625-.34375l50.015625 78.589844c-3.40625 5.089844-5.40625 11.195312-5.40625 17.753906 0 17.648438 14.351562 32 32 32 15.863281 0 28.96875-11.632812 31.472656-26.792969l102.191406-51.09375c5.777344 8.375 15.414063 13.886719 26.335938 13.886719 14.433594 0 26.511719-9.664062 30.496094-22.808594l130.664062 21.777344c3 9.824219 12.046875 17.03125 22.839844 17.03125 13.230469 0 24-10.769531 24-24s-10.769531-24-24-24c-10 0-18.566406 6.152344-22.167969 14.863281l-130.632812-21.773437c-.535157-2.433594-1.414063-4.730469-2.472657-6.921875l70.015626-38.191407c3.800781 2.535157 8.363281 4.023438 13.257812 4.023438 13.230469 0 24-10.769531 24-24s-10.769531-24-24-24-24 10.769531-24 24c0 2.449219.472656 4.761719 1.160156 6.984375l-71 38.71875c-5.167968-3.574219-11.40625-5.703125-18.160156-5.703125-17.648438 0-32 14.351562-32 32 0 .992188.207031 1.9375.296875 2.902344l-98.609375 49.304687c-2.359375-5.917969-6.398438-10.976562-11.574219-14.542969l26.976563-53.960937c.972656.089844 1.917968.296875 2.910156.296875 17.648438 0 32-14.351562 32-32s-14.351562-32-32-32-32 14.351562-32 32c0 10.921875 5.511719 20.558594 13.886719 26.335938l-26.976563 53.960937c-.972656-.089844-1.917968-.296875-2.910156-.296875-5.207031 0-10.0625 1.367188-14.414062 3.59375l-46.914063-73.722656c8.039063-5.824219 13.328125-15.214844 13.328125-25.871094 0-17.648438-14.351562-32-32-32s-32 14.351562-32 32 14.351562 32 32 32zm424 48c4.40625 0 8 3.59375 8 8s-3.59375 8-8 8-8-3.59375-8-8 3.59375-8 8-8zm-72-96c4.40625 0 8 3.59375 8 8s-3.59375 8-8 8-8-3.59375-8-8 3.59375-8 8-8zm-112 64c8.824219 0 16 7.175781 16 16s-7.175781 16-16 16-16-7.175781-16-16 7.175781-16 16-16zm-112-48c8.824219 0 16 7.175781 16 16s-7.175781 16-16 16-16-7.175781-16-16 7.175781-16 16-16zm-32 128c0 8.824219-7.175781 16-16 16s-16-7.175781-16-16 7.175781-16 16-16 16 7.175781 16 16zm-96-144c8.824219 0 16 7.175781 16 16s-7.175781 16-16 16-16-7.175781-16-16 7.175781-16 16-16zm0 0"/></svg>